<?xml version="1.0" standalone="no"?>
<!DOCTYPE svg PUBLIC "-//W3C//DTD SVG 1.0//EN" "http://www.w3.org/TR/2001/REC-SVG-20010904/DTD/svg10.dtd">
<svg xmlns="http://www.w3.org/2000/svg" xmlns:xlink="http://www.w3.org/1999/xlink" id="body_1" width="793" height="1122">

<g transform="matrix(1.3333334 0 0 1.3333334 0 0)">
	<path  d="M0 0L594.75 0L594.75 841.5L0 841.5z" stroke="none"  fill="#FFFFFF" fill-rule="evenodd" />
	<g transform="matrix(0.75 0 0 0.75 0 0)">
		<g>
			<g transform="matrix(1 0 0 1 396.8504 561.2598)">
				<g>
					<g>
						<g>
							<g>
							</g>
						</g>
					</g>
				</g>
				<g>
					<g>
						<path  d="M-204.83582 48.60797C -205.08069 50.443268 -205.2204 51.738373 -205.24487 52.5278C -205.27515 53.262512 -205.2276 54.543182 -205.10803 56.379913C -206.67975 57.05414 -208.29175 57.788788 -209.96716 58.59265C -211.63965 59.406586 -213.62915 60.35019 -215.95709 61.481018C -214.61298 62.400116 -212.97504 63.476227 -211.04321 64.736755C -209.11139 65.99725 -207.26752 67.20444 -205.52582 68.32526C -205.74335 69.37686 -205.86005 70.0871 -205.87305 70.47461C -205.90472 71.31735 -205.8399 72.0477 -205.6742 72.6427L-205.6742 72.6427L-205.95654 72.638336L-205.95654 72.638336L-211.55469 68.32526C -212.33405 67.73459 -213.11334 67.148254 -213.89276 66.553314C -214.68213 65.96268 -215.46155 65.37781 -216.23944 64.77133C -217.02887 64.18643 -217.80823 63.595795 -218.59192 62.995056L-218.59192 62.995056L-219.63489 63.57132C -220.95306 64.24548 -222.30719 64.93555 -223.68726 65.639984C -225.05725 66.34012 -226.3797 67.02438 -227.6402 67.66547C -228.90363 68.31082 -230.22028 68.95621 -231.61768 69.6362C -233.00494 70.31036 -234.37927 70.93988 -235.72186 71.526184C -235.68011 71.104126 -235.62537 70.47461 -235.54181 69.65054C -235.45679 68.83664 -235.39923 68.20566 -235.3819 67.76483C -235.37329 67.34274 -235.3819 66.693054 -235.40637 65.85321C -235.43665 65.00467 -235.44672 64.37515 -235.45679 63.983307C -234.19342 63.42148 -232.58862 62.672394 -230.64526 61.73459C -228.69763 60.79242 -226.54108 59.743683 -224.1828 58.617126L-224.1828 58.617126L-230.3197 54.35446L-230.3197 54.35446L-233.5653 52.414C -233.83185 52.269928 -234.08105 52.11148 -234.3476 51.92276C -234.60834 51.73404 -234.8316 51.585663 -235.02032 51.4906C -234.84167 50.27475 -234.75238 49.62503 -234.74664 49.54004C -234.71637 48.726105 -234.76105 47.991425 -234.87622 47.302826C -233.69788 48.141235 -231.7099 49.584717 -228.9079 51.62024C -226.11462 53.670166 -223.60223 55.470917 -221.35498 57.033936L-221.35498 57.033936L-204.83582 48.60797M-209.82019 89.109985L-209.82019 89.109985C -210.76807 89.14453 -212.13086 89.184875 -213.93024 89.249725C -215.72375 89.28427 -217.21039 89.34338 -218.39166 89.42688C -219.65936 89.5119 -221.22528 89.67035 -223.10962 89.88931C -224.99957 90.09247 -226.45605 90.24658 -227.46875 90.34021C -228.20349 90.41083 -229.27814 90.54477 -230.71442 90.72775C -232.14636 90.91647 -233.2182 91.05478 -233.91248 91.11957C -233.91827 90.74216 -233.91827 90.17166 -233.91827 89.38223C -233.91827 88.60864 -233.9226 88.02377 -233.95288 87.66507C -234.04218 86.35559 -234.20062 85.05618 -234.42395 83.78989C -229.70166 83.85904 -224.31964 83.68472 -218.27496 83.26843L-218.27496 83.26843L-215.93262 83.09552C -214.98468 83.035034 -213.96765 82.95148 -212.8656 82.84631C -211.77795 82.73248 -210.92511 82.67346 -210.33734 82.63309C -207.776 82.36084 -205.80817 82.11304 -204.42523 81.89407C -204.48285 83.6156 -204.48572 84.81705 -204.44537 85.466736C -204.39789 86.13226 -204.22784 87.31354 -203.91956 89.024994C -206.54285 89.024994 -208.51788 89.05524 -209.82019 89.109985M-204.87329 103.79523L-204.87329 103.79523C -205.02594 103.462524 -205.12103 103.19025 -205.15704 102.96692C -205.29248 102.217834 -205.13544 101.428406 -204.67877 100.61444C -204.22784 99.88983 -203.50323 99.43317 -202.50494 99.25885C -200.99951 98.996704 -199.89746 99.39862 -199.2204 100.48053C -198.8977 100.98181 -198.67877 101.57245 -198.56781 102.217834C -198.32434 103.57776 -198.68304 104.668274 -199.63959 105.487976C -200.30951 105.96912 -201.07007 106.29181 -201.92432 106.440186C -204.17743 106.83783 -206.25476 106.47479 -208.16785 105.34393C -209.64734 104.4306 -210.68604 103.16431 -211.29248 101.56671L-211.29248 101.56671L-209.50476 101.24982C -209.18774 102.02911 -208.4704 102.72778 -207.33954 103.348694C -206.57452 103.79523 -205.75348 103.94946 -204.87329 103.79523M-228.3648 122.099365L-228.3648 122.099365L-228.3648 122.099365L-220.22552 122.85272C -210.89917 123.76605 -202.85211 124.352356 -196.07556 124.60022C -196.03815 124.75433 -196.00067 124.927185 -195.97333 125.12604C -195.94165 125.33484 -195.90997 125.54376 -195.86676 125.75116C -195.83215 125.96442 -195.78314 126.13867 -195.73853 126.27698C -195.66937 126.5061 -195.56274 126.753845 -195.4259 126.997314C -195.29193 127.26526 -195.16223 127.50867 -195.05566 127.7464L-195.05566 127.7464L-195.65063 128.30243C -203.60266 134.69434 -211.49988 141.28497 -219.3396 148.08026L-219.3396 148.08026L-219.6997 148.47205L-219.6997 148.47205L-220.09589 148.60168C -220.21118 148.18396 -220.3725 147.57318 -220.57556 146.77509C -220.77435 145.97119 -220.93433 145.36475 -221.07404 144.94843C -221.44568 143.78156 -221.88794 142.64496 -222.38641 141.54431C -218.9621 139.09674 -216.4195 137.19519 -214.78589 135.86554C -214.95734 135.3498 -215.18347 134.57043 -215.46869 133.53894C -215.7583 132.50177 -215.9945 131.71234 -216.16022 131.19086C -216.51312 130.11908 -217.10382 128.44653 -217.93787 126.17328L-217.93787 126.17328L-218.57751 126.16321C -220.03247 126.11859 -221.54364 126.078186 -223.10962 126.04364C -224.66254 125.98456 -226.09161 126.029236 -227.40253 126.11859C -227.48175 125.4444 -227.62726 124.763 -227.85626 124.0686C -228.06226 123.43329 -228.3346 122.81818 -228.67169 122.203064L-228.67169 122.203064L-228.3648 122.099365M-215.06824 126.435486L-215.06824 126.435486L-215.06824 126.435486L-212.58325 134.0893C -210.32874 132.35193 -207.48065 130.0398 -204.04059 127.19031C -207.93011 126.80426 -211.46106 126.565125 -214.65192 126.451294L-214.65192 126.451294L-215.06824 126.435486M-213.49512 161.90125L-213.49512 161.90125C -213.68964 161.31201 -213.90283 160.77039 -214.13623 160.28339C -214.43292 159.6726 -214.79169 159.09204 -215.21088 158.55615C -212.25189 157.4455 -209.21515 156.20367 -206.11359 154.82507C -203.00623 153.43921 -199.66406 151.87183 -196.09149 150.13019C -195.38123 149.77722 -194.33392 149.25574 -192.92645 148.54553C -191.53491 147.83679 -190.46307 147.31097 -189.74567 146.95801C -188.93896 146.56616 -188.32092 146.23773 -187.89453 145.98132C -187.63666 146.91339 -187.43066 147.54437 -187.27649 147.857C -187.10797 148.21857 -186.72766 148.77893 -186.1471 149.54388C -187.10797 151.96118 -187.98096 154.19836 -188.78766 156.26855C -189.57422 158.34729 -190.45734 160.6767 -191.44556 163.22656C -192.42804 165.7735 -193.26648 167.96606 -193.98096 169.78693C -194.69122 171.58911 -195.508 173.59442 -196.42853 175.78265L-196.42853 175.78265L-187.75049 171.55023L-187.75049 171.55023L-183.31348 169.38501C -182.66809 169.06232 -181.85992 168.63159 -180.90192 168.07556C -179.9339 167.51947 -179.20929 167.09735 -178.71802 166.8352L-178.71802 166.8352L-177.9444 166.38287C -177.68512 167.32068 -177.47913 167.94586 -177.32642 168.26428C -177.19678 168.51782 -177.021 168.82031 -176.78479 169.16321C -176.56146 169.50458 -176.37994 169.77826 -176.25171 169.99579C -177.27887 170.39343 -178.02509 170.70605 -178.50476 170.9336C -180.4914 171.71875 -182.20135 172.41315 -183.63611 173.05273C -184.47028 173.44025 -185.15741 173.75287 -185.67316 173.98627C -186.21191 174.20953 -186.8573 174.47748 -187.59344 174.8045C -188.33392 175.12714 -189.01819 175.43976 -189.6535 175.73804C -190.28156 176.01172 -190.80017 176.25946 -191.2237 176.46838L-191.2237 176.46838L-195.22278 178.41895L-195.22278 178.41895L-203.53778 182.47272C -203.53778 182.36902 -203.58966 182.21918 -203.68909 182.01605C -203.76831 181.74377 -203.93256 181.36633 -204.16302 180.8996C -204.51746 180.17072 -204.82861 179.63477 -205.10803 179.26166C -201.79468 171.68414 -199.07056 165.00275 -196.90973 159.23181L-196.90973 159.23181L-194.49817 152.77942C -196.96442 153.8858 -198.74353 154.7055 -199.82544 155.2356L-199.82544 155.2356L-203.47876 157.01764C -207.9748 159.20154 -211.28668 160.9331 -213.4317 162.185L-213.4317 162.185L-213.49512 161.90125M-194.04004 205.58112L-194.04004 205.58112C -192.40643 206.97559 -190.64893 207.02887 -188.75745 205.75397C -186.95386 204.55255 -184.97589 203.12347 -182.79779 201.42651C -182.09473 200.87616 -181.0503 200.07233 -179.66156 199.01495C -178.26855 197.96185 -177.25153 197.17389 -176.59027 196.66248C -176.07312 196.25476 -175.29376 195.66992 -174.24072 194.87042C -173.18182 194.06653 -172.39532 193.47156 -171.85364 193.05377C -171.46466 192.74115 -170.9043 192.28448 -170.16095 191.6795C -169.4248 191.07446 -168.86298 190.62207 -168.49133 190.32965C -168.03754 189.92194 -167.3374 189.3169 -166.4068 188.5376C -165.46753 187.74811 -164.78613 187.16327 -164.3424 186.74548C -163.36426 188.29413 -162.68433 189.3169 -162.30981 189.79376C -161.82861 190.40887 -161.00458 191.31647 -159.85938 192.48334C -161.95972 193.91815 -163.5213 194.99426 -164.53406 195.72894C -165.48486 196.41473 -166.90814 197.50092 -168.77942 198.96454C -169.10645 199.14313 -169.53717 199.45148 -170.099 199.89221C -171.0008 200.59814 -172.24695 201.59503 -173.83447 202.91028C -175.43927 204.22552 -176.82654 205.33765 -178.01074 206.26105L-178.01074 206.26105L-180.12262 207.90765C -182.40588 209.69543 -184.4184 210.68799 -186.12549 210.88531C -189.46478 211.3031 -192.4972 210.1319 -195.22278 207.35162L-195.22278 207.35162L-194.04004 205.58112M-152.17816 210.03253L-152.17816 210.03253C -152.88263 210.66205 -153.9198 211.5509 -155.27972 212.72205C -156.65692 213.88898 -157.77478 214.86133 -158.63489 215.6753C -159.57123 216.53821 -160.68915 217.646 -162.013 219.00012C -163.35559 220.34564 -164.38708 221.3872 -165.11603 222.09161C -165.64044 222.61743 -166.3996 223.39685 -167.39502 224.43542C -168.38757 225.48706 -169.14105 226.26642 -169.638 226.76202C -169.8714 226.4696 -170.23877 226.02734 -170.73431 225.41791C -171.22125 224.80139 -171.5943 224.3548 -171.83923 224.09698C -172.73529 223.13458 -173.6731 222.22705 -174.65125 221.38287C -170.93164 218.4643 -166.8534 214.95068 -162.42645 210.81616L-162.42645 210.81616L-160.70496 209.2085C -160.01202 208.56891 -159.27588 207.8587 -158.48358 207.08942C -157.71002 206.32013 -157.08765 205.72949 -156.66266 205.32178C -154.83313 203.50665 -153.4646 202.0675 -152.52533 201.02454C -151.4809 202.409 -150.73474 203.34247 -150.28809 203.82361C -149.83575 204.31049 -148.95703 205.12299 -147.65186 206.26105C -149.68164 207.90765 -151.19568 209.17395 -152.17816 210.03253M-161.3158 235.24847L-161.3158 235.24847L-161.3158 235.24847L-154.146 231.32288C -145.90582 226.86713 -138.91034 222.84216 -133.15094 219.258C -133.03137 219.36316 -132.90454 219.50146 -132.7677 219.64117C -132.63232 219.79968 -132.48975 219.9538 -132.33698 220.09644C -132.18286 220.25635 -132.04602 220.38019 -131.93939 220.4638C -131.7478 220.61359 -131.52307 220.76776 -131.2666 220.8916C -131.00879 221.03564 -130.76392 221.16394 -130.54199 221.29358L-130.54199 221.29358L-130.7279 222.09735C -133.75165 231.83435 -136.60541 241.71094 -139.31232 251.7403L-139.31232 251.7403L-139.39441 252.25745L-139.39441 252.25745L-139.64655 252.59021C -139.96924 252.3122 -140.44604 251.89014 -141.05682 251.34412C -141.672 250.7981 -142.14594 250.37604 -142.49603 250.11243C -143.45831 249.35327 -144.4638 248.65887 -145.49097 248.02356C -144.01001 244.07349 -142.96997 241.07996 -142.3692 239.06024C -142.79126 238.72888 -143.4165 238.21753 -144.23334 237.5174C -145.05444 236.81726 -145.68402 236.30585 -146.11328 235.96301C -147.0122 235.2586 -148.43121 234.21124 -150.39758 232.7923L-150.39758 232.7923L-150.92773 233.13947C -152.16376 233.91882 -153.4372 234.73279 -154.75397 235.57117C -156.06915 236.39948 -157.23749 237.22925 -158.27039 238.04321C -158.70978 237.5174 -159.2154 237.04059 -159.7945 236.58966C -160.31744 236.17767 -160.89368 235.82043 -161.51605 235.50201L-161.51605 235.50201L-161.3158 235.24847M-147.87366 231.4079L-147.87366 231.4079L-147.87366 231.4079L-141.52795 236.36493C -140.6319 233.66669 -139.56299 230.15747 -138.3097 225.86456C -141.74829 227.72003 -144.80817 229.49628 -147.51355 231.18463L-147.51355 231.18463L-147.87366 231.4079M-106.19476 270.0746L-106.19476 270.0746C -110.375305 270.75885 -114.54724 269.85992 -118.68317 267.36914C -123.00635 264.7732 -125.67145 261.4685 -126.6712 257.45367C -127.7113 253.5871 -127.006836 249.61682 -124.56647 245.55151C -122.072815 241.39398 -118.56647 238.922 -114.0387 238.15704C -109.83942 237.5174 -105.68622 238.44513 -101.596436 240.90137C -98.131775 242.97577 -95.73755 245.58179 -94.38916 248.71362C -93.27557 251.30957 -92.89667 253.7456 -93.2641 256.01453C -93.588196 258.30646 -94.39923 260.5307 -95.69287 262.67865C -96.84674 264.60034 -98.33783 266.21814 -100.15729 267.50745C -101.99255 268.8141 -104.00073 269.66254 -106.19476 270.0746M-107.79956 264.99652L-107.79956 264.99652C -105.4917 263.61646 -103.400024 261.35907 -101.50708 258.21283C -100.48425 256.51007 -99.7525 254.67328 -99.34766 252.71844C -98.94141 250.77362 -99.02783 248.93262 -99.61554 247.18512C -100.20331 245.44202 -101.37744 244.03894 -103.16376 242.96136C -104.817505 241.96881 -106.48425 241.54675 -108.1568 241.70514C -109.82648 241.83484 -111.34338 242.33612 -112.68744 243.22498C -114.83679 244.61945 -116.934326 247.0166 -118.975586 250.41058C -120.021484 252.14795 -120.73309 253.94006 -121.09473 255.7998C -121.46057 257.65674 -121.34393 259.41858 -120.73309 261.09546C -120.11798 262.7636 -118.926636 264.13794 -117.14746 265.20978C -114.2807 266.92694 -111.164795 266.8578 -107.79956 264.99652M-72.16388 261.64722L-72.16388 261.64722C -72.627686 262.79816 -73.326416 264.48077 -74.28729 266.71368C -75.23517 268.9524 -75.942505 270.6292 -76.39624 271.7514C -76.6181 272.31757 -76.9552 273.18048 -77.398926 274.33148C -77.84119 275.48828 -78.185486 276.3728 -78.43182 276.97784C -78.71704 277.6765 -79.11902 278.77863 -79.65204 280.26813C -80.180664 281.77216 -80.58978 282.87415 -80.8736 283.56274C -81.179016 283.4187 -81.7005 283.1709 -82.426575 282.81793C -83.171326 282.4521 -83.730286 282.1942 -84.11633 282.0343C -84.47363 281.90033 -85.02966 281.70728 -85.77881 281.4696C -86.54083 281.21033 -87.10846 281.0216 -87.50177 280.88757C -87.21362 280.23785 -86.78723 279.29578 -86.20093 278.0338C -85.60016 276.78912 -85.18378 275.84125 -84.936035 275.22607C -82.39917 269.458 -80.45441 264.8827 -79.08154 261.4887C -78.59747 260.28296 -77.94202 258.53986 -77.10651 256.232C -77.90027 255.91943 -79.10602 255.47717 -80.739685 254.91675C -82.31995 254.43127 -83.69574 254.06396 -84.864075 253.76575C -84.58313 253.43872 -84.29065 252.90283 -83.98523 252.14795C -83.72162 251.48242 -83.55023 251.00128 -83.46954 250.67859C -83.47101 250.63391 -83.45941 250.54028 -83.43213 250.40051C -83.398926 250.26654 -83.39172 250.17725 -83.39172 250.13257C -82.07654 250.75348 -81.06952 251.19574 -80.37225 251.48242C -77.463745 252.76306 -75.016174 253.8003 -73.033936 254.60413L-73.033936 254.60413L-68.82886 256.3026C -68.125916 256.58496 -67.09155 256.9566 -65.72876 257.41907C -64.3645 257.85992 -63.263916 258.2575 -62.408203 258.6046C -62.76117 259.12036 -63.033386 259.64185 -63.246643 260.16766C -63.510254 260.81305 -63.72345 261.49738 -63.877563 262.24213C -66.13788 260.888 -68.47308 259.72687 -70.852905 258.76886L-70.852905 258.76886L-72.16388 261.64722M-35.757446 291.68335L-35.757446 291.68335C -39.449646 293.75775 -43.680664 294.33258 -48.425964 293.4192C -53.3714 292.45117 -57.01178 290.2528 -59.32245 286.81848C -61.621643 283.54834 -62.321777 279.57812 -61.414246 274.92792C -60.490784 270.16388 -58.03894 266.65033 -54.05139 264.36694C -50.321716 262.3473 -46.10797 261.78546 -41.42035 262.69446C -37.450134 263.46375 -34.3183 265.0916 -31.975952 267.57806C -30.035461 269.6424 -28.851257 271.79608 -28.417664 274.0448C -27.939392 276.31665 -27.943726 278.6792 -28.421997 281.14117C -28.851257 283.3452 -29.702637 285.36926 -30.968933 287.206C -32.240967 289.0672 -33.84143 290.55103 -35.757446 291.68335M-39.00598 287.4538L-39.00598 287.4538C -37.310364 285.375 -36.114685 282.53564 -35.416016 278.93848C -35.035706 276.97784 -34.980957 275.00134 -35.2619 273.0321C -35.548523 271.06714 -36.258728 269.36438 -37.415527 267.9295C -38.55359 266.49042 -40.145447 265.56696 -42.189636 265.17517C -44.07965 264.8078 -45.78534 264.97778 -47.313843 265.69666C -48.83795 266.3824 -50.08545 267.3836 -51.04779 268.67432C -52.592102 270.71417 -53.740234 273.68176 -54.49945 277.5786C -54.88263 279.57373 -54.938843 281.49408 -54.646362 283.3553C -54.358215 285.23096 -53.643738 286.8487 -52.499878 288.2187C -51.345947 289.57867 -49.758423 290.46606 -47.72003 290.8593C -44.43695 291.48883 -41.532715 290.3623 -39.00598 287.4538M-14.965454 296.81897L-14.965454 296.81897C -15.569092 296.71527 -16.148193 296.64612 -16.687012 296.62598C -17.36267 296.60004 -18.04541 296.64612 -18.722534 296.74982C -18.310547 293.62378 -17.984924 290.35797 -17.740051 286.9784C -17.508118 283.58295 -17.3208 279.89502 -17.191162 275.92474C -17.159485 275.13098 -17.132141 273.9699 -17.094666 272.38672C -17.067322 270.828 -17.032715 269.6266 -17.005371 268.83856C -16.970764 267.9295 -16.967896 267.23523 -16.998169 266.7295C -16.050293 266.95288 -15.401978 267.06665 -15.047607 267.07098C -14.660095 267.09113 -13.982971 267.02197 -13.025024 266.87793C -11.352478 268.84283 -9.779419 270.6753 -8.333008 272.35645C -6.867981 274.0348 -5.2300415 275.90027 -3.440796 277.9704C -1.6502075 280.0348 -0.1116333 281.8067 1.1546631 283.29053C 2.425232 284.76422 3.803894 286.42236 5.3078003 288.2677L5.3078003 288.2677L5.647827 278.61578L5.647827 278.61578L5.816345 273.68176C 5.842285 272.96722 5.833618 272.03955 5.79187 270.9375C 5.751526 269.82104 5.7285156 268.97687 5.7198486 268.42657L5.7198486 268.42657L5.683838 267.52325C 6.6331787 267.74084 7.282837 267.85028 7.635803 267.87048C 7.9282837 267.87482 8.27832 267.8604 8.683105 267.81573C 9.085022 267.77686 9.417847 267.74084 9.665588 267.7221C 9.5373535 268.8285 9.462463 269.6266 9.439392 270.16388C 9.198853 272.28302 9.0130005 274.12402 8.903564 275.68134C 8.848816 276.61053 8.8098755 277.35962 8.768127 277.91998C 8.714783 278.51068 8.655762 279.20068 8.590942 280.00018C 8.53186 280.81415 8.487183 281.56323 8.445435 282.26337C 8.402222 282.94763 8.370483 283.52386 8.35321 283.9906L8.35321 283.9906L8.199097 288.43622L8.199097 288.43622L7.876404 297.68335C 7.7841797 297.63293 7.6329346 297.60846 7.4067383 297.5984C 7.1272583 297.54938 6.7210693 297.50903 6.192383 297.4889C 5.38562 297.46008 4.760437 297.4889 4.310974 297.5537C -0.8233032 291.08258 -5.444641 285.53925 -9.531616 280.92358L-9.531616 280.92358L-14.093933 275.76636C -14.27832 278.45587 -14.392151 280.4223 -14.433899 281.61792L-14.433899 281.61792L-14.573669 285.67755C -14.747986 290.68066 -14.773926 294.41174 -14.683105 296.89825L-14.683105 296.89825L-14.965454 296.81897M42.862427 268.8285L42.862427 268.8285C 40.334167 266.3824 37.232605 265.518 33.55188 266.23254C 30.016724 266.9226 27.479858 268.98694 25.937012 272.4458C 24.820496 275.11084 24.595764 278.2326 25.291626 281.8067C 25.641663 283.61316 26.324524 285.33472 27.318542 286.96826C 28.311096 288.60046 29.529785 289.8062 30.981873 290.60577C 31.892395 291.08258 32.637146 291.3952 33.211975 291.52344C 33.79248 291.65308 34.64673 291.7467 35.770386 291.81152C 36.77881 291.80145 37.545166 291.74237 38.081116 291.63867C 38.85034 291.48456 39.79828 291.18628 40.932007 290.74408C 41.10919 290.70953 41.416077 290.58563 41.835266 290.38245C 42.264526 290.17358 42.503662 290.02954 42.565613 289.9359C 42.582886 289.91138 42.58728 289.8365 42.58728 289.70685C 42.582886 289.57867 42.59735 289.50806 42.617493 289.50806L42.617493 289.50806L41.975037 286.19897C 41.662415 284.5755 41.13513 282.36273 40.398987 279.55365C 41.490967 279.47437 42.58728 279.3404 43.6792 279.1272C 44.867676 278.8938 46.001404 278.6057 47.096252 278.2528C 47.27057 280.28253 47.61487 282.6494 48.140686 285.34045C 48.35388 286.44684 48.712646 288.0545 49.212524 290.15918C 44.9541 292.2682 41.323853 293.62378 38.308716 294.20435C 36.00232 294.6552 33.7464 294.7849 31.55664 294.5962C 29.358337 294.42188 27.355957 293.88165 25.500488 292.97845C 23.666626 292.08527 22.110779 290.8089 20.847412 289.1623C 19.583984 287.4984 18.722534 285.46863 18.247131 283.03693C 17.747253 280.45685 17.750122 278.06982 18.257202 275.88013C 18.77295 273.69183 19.707886 271.7716 21.082214 270.1034C 22.440674 268.42657 24.142029 267.03638 26.17035 265.9502C 28.207336 264.85822 30.473389 264.0688 32.958374 263.59192C 36.806213 262.84717 40.420593 263.0373 43.800232 264.15808C 43.55963 266.13892 43.453003 267.65295 43.4588 268.70892L43.4588 268.70892L42.862427 268.8285M90.21866 252.56427L90.21866 252.56427C 90.38724 252.99646 90.64798 253.67212 90.99661 254.58539C 91.34088 255.48724 91.601654 256.1773 91.78027 256.61523C 91.98627 257.1151 92.261444 257.85992 92.62158 258.87695C 92.99039 259.90405 93.27127 260.65894 93.47006 261.15594C 94.654236 264.32666 95.3587 266.8578 95.59494 268.75934C 95.81967 270.64935 95.254974 272.62012 93.89938 274.68445C 92.48471 276.9073 90.21149 278.65466 87.055176 279.93103C 85.290436 280.64557 83.53436 281.10657 81.776855 281.3255C 80.02222 281.54883 78.33963 281.38464 76.7276 280.85876C 75.1199 280.3272 73.73984 279.3145 72.57297 277.82635C 72.240204 277.42877 71.820984 276.76318 71.33261 275.7865C 71.00995 275.24054 70.59503 274.3272 70.07211 273.0321C 69.73218 272.198 69.36194 271.3048 68.93982 270.32666C 68.52637 269.38458 68.200836 268.6153 67.97031 268.03906L67.97031 268.03906L65.89584 262.90765C 65.69278 262.40204 65.370026 261.63275 64.92633 260.61C 64.47833 259.55255 64.15851 258.78333 63.958282 258.2964C 63.88626 258.11774 63.75949 257.82532 63.582275 257.45367C 63.406586 257.07043 63.272583 256.77368 63.188995 256.57056C 64.86154 256.0937 66.009674 255.72064 66.66803 255.4483C 67.33792 255.18475 68.39526 254.66467 69.82437 253.88525C 69.90933 254.09851 70.01019 254.43127 70.15134 254.89227C 70.283875 255.36334 70.374664 255.72064 70.449585 255.96985C 71.68848 259.59723 72.861115 262.81256 73.99341 265.61163C 75.49451 269.31396 76.61093 271.84076 77.34277 273.2151C 78.07745 274.32288 78.71274 275.13098 79.23422 275.6626C 79.76004 276.1927 80.49475 276.6148 81.412384 276.9721C 83.11517 277.63763 84.90436 277.59296 86.775696 276.84387C 88.65277 276.07898 89.98819 275.08636 90.812225 273.87628C 91.6319 272.65033 92.05255 271.0268 92.05972 269.00708C 92.03381 267.6126 91.12482 264.69397 89.3356 260.28296C 87.13437 254.82312 85.37833 250.77362 84.05731 248.13306C 85.104614 247.90399 85.81482 247.71533 86.2124 247.55249C 86.62155 247.3883 87.285645 247.02667 88.1889 246.4649C 88.26669 246.77747 88.387695 247.20532 88.55481 247.72534C 88.73486 248.26123 88.90631 248.81732 89.11087 249.41376C 89.313995 249.99426 89.48688 250.4956 89.645325 250.90765C 89.78793 251.32391 89.976654 251.88 90.21866 252.56427M114.96646 265.63757L114.96646 265.63757C 114.40607 265.8897 113.89465 266.1634 113.44089 266.46594C 112.87039 266.83325 112.34604 267.26544 111.850464 267.74084C 110.39114 264.94318 108.78635 262.07928 107.04324 259.1607C 105.291504 256.25793 103.32367 253.1261 101.16278 249.79547C 100.73062 249.12994 100.085236 248.1518 99.20505 246.84229C 98.336365 245.54724 97.673706 244.55035 97.24008 243.8747C 96.747406 243.12561 96.35123 242.54932 96.0401 242.15753C 96.941864 241.79016 97.5426 241.50781 97.83502 241.31909C 98.16208 241.10443 98.68356 240.6579 99.376465 239.99377C 101.88022 240.64923 104.21393 241.2442 106.36618 241.79016C 108.525604 242.32178 110.94003 242.91669 113.58783 243.58228C 116.24716 244.25214 118.51608 244.80676 120.411865 245.30371C 122.29468 245.78491 124.37634 246.35107 126.66974 247.00073L126.66974 247.00073L121.40729 238.89746L121.40729 238.89746L118.71918 234.75726C 118.331665 234.1623 117.785675 233.40741 117.115814 232.52435C 116.44595 231.6355 115.94748 230.96564 115.62195 230.50897L115.62195 230.50897L115.07593 229.80017C 115.974884 229.42712 116.57556 229.14905 116.87091 228.96179C 117.11148 228.79755 117.38663 228.58435 117.69638 228.31061C 118.00897 228.04266 118.256775 227.82947 118.45123 227.68109C 118.97992 228.64917 119.37897 229.35358 119.66708 229.80017C 120.68414 231.67151 121.58737 233.28784 122.391235 234.62903C 122.87814 235.41846 123.27719 236.0581 123.56818 236.54504C 123.85773 237.05066 124.207794 237.6557 124.61691 238.35004C 125.03183 239.0415 125.42078 239.68542 125.791016 240.27612C 126.148254 240.86676 126.44791 241.35364 126.71152 241.75562L126.71152 241.75562L129.13461 245.4867L129.13461 245.4867L134.17374 253.23993C 134.07147 253.26013 133.92596 253.32349 133.73727 253.44739C 133.47797 253.55682 133.12933 253.76575 132.68274 254.04376C 132.0028 254.49036 131.50867 254.86774 131.18167 255.18475C 123.252686 252.8222 116.29468 250.9364 110.29608 249.49298L110.29608 249.49298L103.60745 247.87518C 104.99185 250.19745 106.023315 251.8656 106.6759 252.87262L106.6759 252.87262L108.89728 256.29248C 111.617096 260.4803 113.736206 263.55737 115.237305 265.5324L115.237305 265.5324L114.96646 265.63757M135.03955 221.76025L135.03955 221.76025C 135.65323 222.47485 136.52621 223.52649 137.68011 224.91083C 138.81097 226.30103 139.77475 227.43762 140.56128 228.32074C 141.41412 229.25854 142.50177 230.40521 143.83432 231.745C 145.15677 233.11499 146.17957 234.16656 146.8768 234.90704C 147.38824 235.44293 148.1546 236.20215 149.176 237.22498C 150.2089 238.242 150.97528 238.99542 151.45642 239.50684C 151.16977 239.7359 150.7174 240.09747 150.0922 240.58441C 149.48138 241.05981 149.02759 241.41705 148.75534 241.66052C 147.7815 242.54504 146.85953 243.4627 145.99518 244.42072C 143.14716 240.64923 139.69696 236.5191 135.64026 232.02301L135.64026 232.02301L134.06714 230.2655C 133.43475 229.56677 132.74179 228.81195 131.9855 228.00812C 131.23352 227.22443 130.64722 226.58917 130.25537 226.15698C 128.46619 224.30579 127.05725 222.90698 126.02725 221.95331C 127.428925 220.92621 128.37683 220.2016 128.86234 219.76514C 129.35211 219.32281 130.18335 218.45416 131.34012 217.15912C 132.95215 219.22345 134.19681 220.76776 135.03955 221.76025M171.22409 220.25055L171.22409 220.25055C 171.07285 220.38019 170.83081 220.59344 170.49231 220.87726C 170.15088 221.15955 169.89157 221.38287 169.73743 221.55145C 169.26636 222.05707 168.87164 222.57855 168.54462 223.12451C 163.9866 221.18408 159.1304 219.19318 153.97601 217.15912C 148.82883 215.1192 143.67584 213.14417 138.54303 211.22388C 139.92023 210.00226 140.8638 209.12927 141.37955 208.57758C 141.89526 208.02722 142.70056 207.02887 143.79684 205.58112C 145.91019 206.63708 148.06818 207.6253 150.23914 208.56891C 152.4144 209.50098 154.92822 210.54822 157.79788 211.72522C 160.6531 212.88629 163.10785 213.89905 165.14774 214.76624C 161.45697 206.65723 157.98517 199.68048 154.76544 193.8288C 154.87204 193.76404 154.95273 193.70496 155.00891 193.66895C 155.0723 193.63434 155.12271 193.58972 155.17169 193.56519C 156.25357 192.41418 157.01852 191.52966 157.48239 190.91022C 158.68527 193.62573 160.17484 196.92462 161.92657 200.80127C 163.67401 204.67206 165.31628 208.23608 166.84763 211.45581C 168.39047 214.68274 169.84402 217.62585 171.22409 220.25055M160.69489 184.85974L160.69489 184.85974C 161.16022 184.22449 161.84015 183.3313 162.73044 182.1947C 163.6164 181.06818 164.3482 180.1001 164.8942 179.33228C 165.7398 178.12073 166.73093 176.64124 167.83441 174.94427C 168.96384 173.25159 169.82242 171.95209 170.42746 171.05322C 171.00082 171.50989 171.86804 172.15094 173.05365 172.97351C 173.18762 173.02393 173.34607 173.10315 173.52905 173.23285C 170.77753 176.53754 168.71317 179.1781 167.34604 181.12866C 168.1672 181.76398 169.41043 182.66144 171.07861 183.83264C 171.51654 184.14087 172.16913 184.60193 173.04068 185.24152C 173.91223 185.88263 174.57202 186.35364 175.00565 186.66193L175.00565 186.66193L180.47986 178.27484C 181.10797 178.93896 181.61215 179.40143 181.98239 179.65924C 182.29932 179.87823 182.81503 180.12604 183.51804 180.39825C 181.6597 182.66144 180.06784 184.74164 178.74396 186.63745C 178.61432 186.80597 178.40399 187.09845 178.10577 187.48016C 177.81476 187.86768 177.60013 188.17603 177.45752 188.37335L177.45752 188.37335L182.05154 191.60028L182.05154 191.60028L186.56775 194.7508C 188.12073 192.53809 189.90271 189.65399 191.91232 186.09583C 192.47272 186.5481 193.34137 187.18774 194.52554 188.01178C 194.65662 188.05646 194.81653 188.13135 195.00235 188.25952C 194.478 188.96979 193.68857 190.02716 192.61243 191.42596C 191.53488 192.82043 190.75122 193.88214 190.25421 194.60248C 189.91278 195.07922 189.43597 195.81396 188.79059 196.78058C 188.16104 197.76886 187.68567 198.479 187.37161 198.93567C 186.90775 199.59552 186.1932 200.69177 185.23523 202.22028C 185.02347 202.0517 184.69214 201.77362 184.23547 201.42651C 183.78311 201.08362 183.46619 200.83582 183.2602 200.65723C 182.58887 200.15588 181.51276 199.36212 180.02176 198.25574C 178.53796 197.13934 177.40134 196.31964 176.63635 195.78802C 176.04572 195.3775 175.14825 194.73639 173.95691 193.87347C 172.75113 192.99908 171.845 192.34937 171.2414 191.93158L171.2414 191.93158L167.04065 188.9798C 166.41977 188.552 165.44739 187.91669 164.12491 187.08398C 162.81253 186.25568 161.83151 185.6247 161.189 185.20697L161.189 185.20697L160.69489 184.85974M195.29913 165.64386L195.29913 165.64386C 193.90466 165.71301 193.04895 165.78217 192.73056 165.82678C 192.52026 165.84265 192.38483 165.90173 192.33441 166.0155C 192.27536 166.13507 192.33154 166.23444 192.48569 166.31372C 193.25784 166.6911 194.41895 167.23712 196.00934 167.956C 197.58823 168.6806 198.76086 169.22656 199.53015 169.59967L199.53015 169.59967L200.612 170.12982C 201.69388 170.60663 203.11862 171.17279 204.9035 171.83258C 204.70758 172.19562 204.41513 172.7113 204.01035 173.4057C 203.62283 174.08997 203.32462 174.60718 203.1532 174.96442C 202.98465 175.30151 202.75702 175.8576 202.44876 176.61243C 202.1419 177.36584 201.91284 177.91187 201.7688 178.25897L201.7688 178.25897L201.07443 177.84271C 200.77191 177.67847 200.45642 177.51428 200.12079 177.3313C 199.7995 177.14258 199.53015 176.98846 199.3515 176.89478C 199.17285 176.781 198.9078 176.63116 198.54764 176.39777C 196.91257 175.44989 194.33972 174.12457 190.86502 172.42896C 190.07413 172.04584 188.88565 171.47534 187.27222 170.70605C 185.65445 169.94684 184.45587 169.3764 183.66931 168.99316C 181.81815 168.0957 178.86496 166.75018 174.81259 164.96387L174.81259 164.96387L176.25464 162.29303C 176.55426 161.67786 176.99365 160.72998 177.55978 159.45508C 178.14035 158.17871 178.58981 157.22217 178.88943 156.58691C 180.42798 153.43488 181.72885 151.43964 182.80353 150.60559C 185.2597 148.93884 187.75336 148.72992 190.26285 149.9516C 192.13275 150.86346 193.41629 152.16425 194.10632 153.85126C 194.79636 155.55396 194.87271 157.4455 194.3642 159.53864C 196.67633 159.42053 201.51093 158.90332 208.87088 157.97565L208.87088 157.97565L211.8039 157.68896C 211.595 158.06061 211.27808 158.64111 210.83148 159.42487C 210.38492 160.2143 210.05646 160.8006 209.87064 161.18237C 209.30737 162.34924 208.78442 163.5694 208.32056 164.83997L208.32056 164.83997L198.01175 165.45514L198.01175 165.45514L195.29913 165.64386M184.65756 162.34924L184.65756 162.34924L184.65756 162.34924L187.75336 163.86182C 189.00665 164.46686 189.94736 164.9538 190.58554 165.31537C 191.64005 163.16168 191.9325 161.37103 191.47583 159.94055C 191.01917 158.51147 189.83789 157.3302 187.92767 156.39813C 187.15839 156.02509 186.46118 155.76288 185.8446 155.61444C 184.99753 155.39984 184.27005 155.3811 183.65921 155.54395C 183.07144 155.70813 182.55719 156.01642 182.14517 156.44281C 181.74036 156.87933 181.36438 157.43536 181.00854 158.09949C 180.65417 158.77515 180.31421 159.42487 179.97708 160.07025L179.97708 160.07025L184.65756 162.34924M197.07971 127.02179L197.07971 127.02179C 194.41895 127.15143 192.71906 128.37158 191.96707 130.68951C 191.51761 132.06378 191.51761 133.29553 191.98148 134.38177C 192.47272 135.44348 193.29959 136.15796 194.4679 136.54114C 195.45184 136.86383 196.43863 136.70972 197.41968 136.0946C 198.41367 135.46362 199.6742 134.40186 201.23001 132.86914C 202.77863 131.3493 204.09677 130.15936 205.18875 129.33966C 206.28067 128.51135 207.4245 128.03455 208.63748 127.93085C 209.78131 127.781006 211.09656 127.949524 212.58615 128.4422C 213.85959 128.84845 215.0596 129.59326 216.19333 130.66504C 217.64835 132.05377 218.50836 133.9798 218.80225 136.4173C 219.03708 138.19928 218.7864 140.20886 218.06467 142.42163C 217.22336 145.02765 215.91241 147.0877 214.13907 148.61035C 212.25046 147.32104 210.62262 146.34723 209.25839 145.67303L209.25839 145.67303L209.51624 144.89941C 211.02023 145.03198 212.33258 144.70068 213.44617 143.9256C 214.56259 143.1419 215.36069 142.02551 215.82889 140.56616C 216.27115 139.2019 216.29132 137.9256 215.86346 136.74432C 215.44711 135.55292 214.57416 134.74908 213.24734 134.3169C 212.06464 133.93518 210.83148 134.09937 209.52634 134.82831C 208.16208 135.85693 206.77914 137.12744 205.36737 138.66028C 204.93518 139.08667 204.35751 139.58368 203.63434 140.16418C 202.9126 140.75488 202.44876 141.13086 202.22546 141.32538C 201.3294 142.06006 200.22592 142.47638 198.9006 142.57141C 197.57526 142.67517 196.28448 142.53546 195.01392 142.11475C 192.29984 141.23175 190.4631 139.46411 189.48349 136.82928C 189.01962 135.61346 188.78625 134.47101 188.81506 133.38916C 188.8482 132.31311 189.08444 131.0727 189.5296 129.67676C 190.31903 127.27539 191.55215 125.369446 193.22327 123.98505C 193.3068 123.96484 193.4235 123.89569 193.5906 123.75165C 194.75171 124.61456 195.98773 125.48901 197.28714 126.3764L197.28714 126.3764L197.07971 127.02179" stroke="none"  fill="#CC2523" fill-rule="evenodd" />
					</g>
				</g>
				<g>
					<g>
						<path  d="M202.32196 106.83197C 203.23532 107.06537 204.5563 107.42267 206.29224 107.90527C 208.0166 108.39075 209.45432 108.76819 210.60822 109.0318C 211.8471 109.32422 213.39429 109.63684 215.25842 109.97394C 217.12396 110.336975 218.56311 110.60492 219.55423 110.81238C 220.28604 110.96222 221.35352 111.15088 222.77249 111.39441C 224.19867 111.63635 225.26614 111.82074 225.9461 111.95044C 225.84238 112.31201 225.68246 112.85797 225.452 113.61719C 225.2186 114.36194 225.06012 114.916565 224.97803 115.2594C 224.67984 116.55023 224.45221 117.835205 224.29373 119.12164C 219.79913 117.666626 214.59863 116.25195 208.70233 114.89209L208.70233 114.89209L206.4089 114.36194C 205.48837 114.14874 204.48575 113.93408 203.41107 113.70215C 202.33206 113.48755 201.49509 113.3089 200.92459 113.185C 198.39926 112.68939 196.43863 112.352295 195.05423 112.153564C 195.61172 110.5199 195.96759 109.37897 196.11594 108.74371C 196.26288 108.093994 196.44873 106.91272 196.65472 105.195496C 199.16135 105.959045 201.0586 106.505005 202.32196 106.83197M206.53857 83.56085L206.53857 83.56085C 207.77457 83.69049 209.58105 83.90372 211.99692 84.201904C 214.40991 84.504425 216.22073 84.71765 217.41641 84.84152C 218.02289 84.90201 218.94342 84.99136 220.17657 85.09073C 221.4068 85.20456 222.3504 85.288086 223.00296 85.35724C 223.7521 85.4379 224.92041 85.531525 226.4993 85.62662C 228.09686 85.72601 229.2609 85.8096 230.01144 85.888794C 229.9538 86.22159 229.85873 86.79785 229.71756 87.59161C 229.57635 88.40555 229.47696 89.02063 229.43231 89.43265C 229.3905 89.81439 229.3675 90.39639 229.34299 91.18442C 229.31274 91.98822 229.28824 92.584656 229.2609 93.00531C 228.56076 92.90158 227.53217 92.74744 226.16937 92.52417C 224.79654 92.30084 223.77512 92.1669 223.10959 92.09775C 216.87332 91.2435 211.9321 90.634094 208.29318 90.25665C 207.00244 90.11841 205.1383 89.9686 202.7066 89.80005C 202.61298 90.65283 202.52078 91.9335 202.43433 93.656494C 202.40408 95.304504 202.42569 96.737915 202.46173 97.93927C 202.07422 97.76068 201.47202 97.63104 200.66675 97.547485C 199.9479 97.472534 199.4408 97.44379 199.10947 97.45239C 199.06339 97.472534 198.97696 97.47687 198.83865 97.49707C 198.70181 97.50708 198.61246 97.511475 198.55774 97.52728C 198.80121 96.09247 198.94955 94.996155 199.03168 94.2514C 199.461 91.105194 199.78366 88.4747 200.00983 86.34549L200.00983 86.34549L200.48376 81.829285C 200.55869 81.07007 200.63217 79.97812 200.69122 78.543304C 200.75174 77.11423 200.83096 75.93869 200.92029 75.02536C 201.51523 75.218445 202.09583 75.34235 202.66193 75.40283C 203.35199 75.471985 204.0694 75.48639 204.82571 75.43744C 204.14575 77.97858 203.67468 80.53848 203.41107 83.08975L203.41107 83.08975L206.53857 83.56085M201.59015 66.504364L201.59015 66.504364C 201.56567 65.7005 201.4288 64.40399 201.1839 62.60324C 201.81635 62.28055 202.43866 61.957855 203.07397 61.620758C 203.70926 61.298065 204.34021 60.960968 204.97986 60.646942C 205.91046 60.16577 207.26028 59.44693 209.03223 58.48462C 209.85767 58.03659 211.11963 57.3768 212.80078 56.513885C 213.60461 56.03708 214.06995 55.730225 214.18661 55.584717C 214.19092 55.600586 214.18661 55.610626 214.16931 55.610626C 214.11172 55.610626 213.8063 55.36142 213.28769 54.87018C 212.89587 54.64258 212.43921 54.40921 211.90616 54.185913C 210.95972 53.694702 209.19641 52.89514 206.6322 51.79312C 205.77362 51.381104 204.55057 50.889862 202.99039 50.304993C 202.5928 50.15085 202.17648 49.986603 201.70972 49.79358C 201.23578 49.600555 200.91595 49.470886 200.72147 49.37149C 200.74454 49.33258 200.76614 49.251923 200.78345 49.15396C 200.80649 49.04016 200.82089 48.95514 200.84393 48.90042C 200.89001 48.567627 200.89581 48.10089 200.87274 47.475677C 200.85114 46.791412 200.75174 46.0567 200.57742 45.25717C 202.09583 45.991882 204.74359 47.351776 208.53809 49.341248C 212.33548 51.322052 215.35205 52.801514 217.57632 53.78833C 219.8121 53.80414 221.50189 53.78833 222.64285 53.743652C 224.06326 53.699005 226.81909 53.44113 230.92618 52.974396C 230.92184 53.37198 230.9089 54.011597 230.8844 54.855774C 230.85703 55.69998 230.84406 56.345337 230.85703 56.77176C 230.90457 58.017853 231.0126 59.25821 231.19412 60.47406C 227.98163 60.260834 224.64526 60.226257 221.18353 60.34442C 220.61307 60.319916 219.76456 60.319916 218.68555 60.364563C 217.31842 61.24765 215.95709 62.08606 214.6159 62.871185C 213.28339 63.67505 211.86441 64.499054 210.37482 65.34323C 208.88095 66.185974 207.32224 67.06906 205.6771 67.99246C 204.04633 68.925964 202.62738 69.7399 201.45905 70.444305C 201.57574 68.607574 201.61755 67.30243 201.59015 66.504364" stroke="none"  fill="#CC2523" fill-rule="evenodd" />
					</g>
				</g>
				<g>
					<g>
						<path  d="M-2.3128662 -223.84373C 152.80768 -223.84373 278.60086 -98.0477 278.60086 57.068512C 278.60086 212.19196 152.80768 337.98224 -2.3128662 337.98224C -157.43195 337.98224 -283.22516 212.19196 -283.22516 57.068512C -283.22516 -98.0477 -157.43195 -223.84373 -2.3128662 -223.84373M-2.3128662 -213.28139L-2.3128662 -213.28139C 146.97476 -213.28139 268.03705 -92.21622 268.03705 57.068512C 268.03705 206.35468 146.97476 327.42133 -2.3128662 327.42133C -151.5976 327.42133 -272.66418 206.35468 -272.66418 57.068512C -272.66418 -92.21622 -151.5976 -213.28139 -2.3128662 -213.28139" stroke="none"  fill="#CC2523" fill-rule="evenodd" />
					</g>
				</g>
				<g>
					<g>
						<path  d="M-2.3128662 -206.16492C 70.36453 -206.16492 136.17328 -176.6949 183.81479 -129.05624C 231.45203 -81.41763 260.92203 -15.607452 260.92203 57.07428C 260.92203 129.74591 231.45203 195.55463 183.81479 243.19476C 136.17328 290.83484 70.36453 320.3034 -2.3128662 320.3034C -74.990234 320.3034 -140.79895 290.83484 -188.43762 243.19476C -236.07623 195.55463 -265.54773 129.74591 -265.54773 57.07428C -265.54773 -15.607452 -236.07623 -81.41763 -188.43762 -129.05624C -140.79895 -176.6949 -74.990234 -206.16492 -2.3128662 -206.16492M179.93243 -125.17532L179.93243 -125.17532C 133.28781 -171.82141 68.84909 -200.67197 -2.3128662 -200.67197C -73.47046 -200.67197 -137.91205 -171.82141 -184.5567 -125.17532C -231.19849 -78.5278 -260.0562 -14.089081 -260.0562 57.07428C -260.0562 128.22754 -231.19849 192.66772 -184.5567 239.31384C -137.91205 285.9599 -73.47046 314.8105 -2.3128662 314.8105C 68.84909 314.8105 133.28781 285.9599 179.93243 239.31384C 226.57419 192.66772 255.43051 128.22754 255.43051 57.07428C 255.43051 -14.089081 226.57419 -78.5278 179.93243 -125.17532" stroke="none"  fill="#CC2523" fill-rule="evenodd" />
					</g>
				</g>
				<g>
					<g>
						<path  d="M8.263916 -123.56189L10.3585205 -103.50177C 15.99408 -103.055176 21.546082 -102.31613 27.00879 -101.30774L27.00879 -101.30774L34.229004 -120.157776C 41.18988 -118.72296 48.00238 -116.87756 54.6521 -114.66339L54.6521 -114.66339L51.478516 -94.72284C 56.77411 -92.83569 61.942932 -90.687775 66.97052 -88.28055L66.97052 -88.28055L78.809265 -104.59802C 85.13199 -101.407135 91.244354 -97.85898 97.117645 -93.973755L97.117645 -93.973755L88.894775 -75.54578C 93.49744 -72.36932 97.92438 -68.96521 102.16257 -65.34216L102.16257 -65.34216L117.82025 -78.04233C 123.10141 -73.341705 128.10168 -68.33856 132.79944 -63.06314L132.79944 -63.06314L120.10068 -47.405426C 123.723755 -43.167236 127.12787 -38.740326 130.30292 -34.144867L130.30292 -34.144867L148.7294 -42.363403C 152.61322 -36.487274 156.16711 -30.373413 159.3537 -24.05072L159.3537 -24.05072L143.03479 -12.209137C 145.44489 -7.185791 147.59277 -2.0140991 149.47995 3.2756958L149.47995 3.2756958L169.41473 0.10498047C 171.63467 6.7503967 173.47574 13.568695 174.91489 20.526703L174.91489 20.526703L156.06342 27.752655C 157.07181 33.212463 157.81516 38.761597 158.25598 44.39859L158.25598 44.39859L178.31897 46.498962C 178.51923 49.99237 178.63736 53.520355 178.63736 57.068512C 178.63736 60.618103 178.51923 64.14609 178.31897 67.64096L178.31897 67.64096L158.25598 69.7399C 157.81516 75.37833 157.07181 80.925995 156.06342 86.38583L156.06342 86.38583L174.91489 93.61182C 173.48004 100.56976 171.63467 107.38373 169.41473 114.03351L169.41473 114.03351L149.47995 110.86279C 147.59277 116.15259 145.44489 121.32428 143.03479 126.347595L143.03479 126.347595L159.3537 138.1878C 156.16711 144.5119 152.61322 150.62 148.7294 156.49756L148.7294 156.49756L130.30292 148.28333C 127.12787 152.87878 123.72089 157.30573 120.10068 161.54395L120.10068 161.54395L132.79944 177.20306C 128.10168 182.47845 123.10141 187.48016 117.82025 192.18079L117.82025 192.18079L102.16257 179.48065C 97.92438 183.1037 93.49744 186.51215 88.894775 189.68427L88.894775 189.68427L97.117645 208.11078C 91.244354 211.99744 85.13199 215.54565 78.809265 218.73798L78.809265 218.73798L66.97052 202.41907C 61.942932 204.82623 56.77411 206.96985 51.478516 208.86133L51.478516 208.86133L54.6521 228.80188C 48.00238 231.01599 41.18988 232.86145 34.229004 234.29626L34.229004 234.29626L27.00879 215.44623C 21.546082 216.45459 15.99408 217.18933 10.3585205 217.63593L10.3585205 217.63593L8.263916 237.70038C 4.760437 237.9035 1.2367554 238.01874 -2.3128662 238.01874C -5.8652954 238.01874 -9.384644 237.9035 -12.888184 237.70038L-12.888184 237.70038L-14.979919 217.63593C -20.618347 217.18933 -26.168945 216.45459 -31.632996 215.44623L-31.632996 215.44623L-38.854675 234.29626C -45.812744 232.86145 -52.629517 231.01599 -59.277832 228.80188L-59.277832 228.80188L-56.104248 208.86133C -61.398376 206.97559 -66.5672 204.82623 -71.59485 202.41907L-71.59485 202.41907L-83.43213 218.73798C -89.75482 215.55139 -95.86719 211.99744 -101.74188 208.11078L-101.74188 208.11078L-93.52051 189.68427C -98.121704 186.51215 -102.548584 183.1037 -106.78534 179.48065L-106.78534 179.48065L-122.445984 192.18079C -127.72278 187.48016 -132.72308 182.47845 -137.42084 177.20306L-137.42084 177.20306L-124.72351 161.54395C -128.34949 157.30573 -131.75067 152.87878 -134.92719 148.28333L-134.92719 148.28333L-153.3551 156.49756C -157.23749 150.6258 -160.79144 144.5119 -163.98083 138.1878L-163.98083 138.1878L-147.6576 126.347595C -150.06915 121.32428 -152.2185 116.15259 -154.10132 110.86279L-154.10132 110.86279L-174.04047 114.03351C -176.25897 107.38373 -178.09998 100.56976 -179.54199 93.61182L-179.54199 93.61182L-160.68481 86.38583C -161.70038 80.925995 -162.43365 75.37833 -162.87885 69.7399L-162.87885 69.7399L-182.94324 67.64096C -183.14923 64.14609 -183.2616 60.618103 -183.2616 57.068512C -183.2616 53.520355 -183.14923 49.99237 -182.94324 46.498962L-182.94324 46.498962L-162.87885 44.39859C -162.43365 38.761597 -161.70038 33.212463 -160.68481 27.752655L-160.68481 27.752655L-179.54199 20.526703C -178.10437 13.568695 -176.25897 6.75473 -174.04047 0.10498047L-174.04047 0.10498047L-154.10419 3.2756958C -152.2185 -2.0140991 -150.06915 -7.185791 -147.66193 -12.209137L-147.66193 -12.209137L-163.98083 -24.05072C -160.79144 -30.373413 -157.23749 -36.487274 -153.3551 -42.363403L-153.3551 -42.363403L-134.92719 -34.144867C -131.75067 -38.740326 -128.34949 -43.167236 -124.72351 -47.405426L-124.72351 -47.405426L-137.42084 -63.06314C -132.72308 -68.33856 -127.72278 -73.341705 -122.445984 -78.04233L-122.445984 -78.04233L-106.78534 -65.34216C -102.548584 -68.96521 -98.121704 -72.36932 -93.52051 -75.54578L-93.52051 -75.54578L-101.74188 -93.973755C -95.86719 -97.85898 -89.75482 -101.407135 -83.43213 -104.59802L-83.43213 -104.59802L-71.59485 -88.28055C -66.57007 -90.687775 -61.398376 -92.83569 -56.104248 -94.72284L-56.104248 -94.72284L-59.277832 -114.66339C -52.629517 -116.87756 -45.812744 -118.72296 -38.854675 -120.157776L-38.854675 -120.157776L-31.632996 -101.30774C -26.174683 -102.31613 -20.618347 -103.055176 -14.979919 -103.50177L-14.979919 -103.50177L-12.888184 -123.56189C -9.384644 -123.765015 -5.8652954 -123.88025 -2.3128662 -123.88025C 1.2367554 -123.88025 4.760437 -123.765015 8.263916 -123.56189M-2.3128662 -87.43637L-2.3128662 -87.43637C 77.27649 -87.43637 142.19061 -22.520813 142.19061 57.068512C 142.19061 136.66077 77.27649 201.57056 -2.3128662 201.57056C -81.90076 201.57056 -146.81915 136.66077 -146.81915 57.068512C -146.81915 -22.520813 -81.90076 -87.43637 -2.3128662 -87.43637" stroke="none"  fill="#CC2523" fill-rule="evenodd" />
					</g>
				</g>
				<g>
					<g>
						<path  d="M-87.422485 20.546875C -43.16205 20.546875 -0.0871582 20.546875 44.12146 20.546875L44.12146 20.546875L47.151 24.378784C 47.151 24.458038 47.151 24.537292 47.151 24.616486C 47.151 35.644196 47.151 46.547943 47.151 57.615936C 36.895508 60.736237 29.705566 62.488007 28.272156 73.96802C 27.112549 85.99255 34.88446 93.526794 42.006653 101.69635C 44.500366 104.55017 47.85547 106.73407 50.29004 109.89905C 50.344727 109.969604 50.408142 109.95953 50.29004 109.95953C 24.258667 109.73047 -24.13623 109.91925 -50.164673 109.97394C -51.263916 108.86755 -39.294067 103.283875 -37.392517 101.01062C -32.769714 92.90158 -29.643616 80.47946 -33.596558 72.023224C -34.13678 70.87219 -36.987732 66.52884 -38.081116 65.51611C -43.212463 62.15091 -48.3136 58.330475 -54.176697 56.22C -53.818054 53.62555 -52.844177 50.692505 -52.180054 48.275208C -50.08545 40.681915 -48.77307 38.04129 -46.65692 30.423492C -45.5318 27.10727 -53.822327 21.862122 -56.10852 28.546417C -59.26483 37.78778 -62.21515 43.921753 -65.584656 53.699005C -70.27527 52.726593 -71.2923 52.170532 -76.245056 52.081238C -77.21741 52.0625 -79.85803 51.238464 -80.74396 50.871124C -83.0777 49.90738 -84.39441 49.251923 -85.42731 46.919586C -85.62463 46.46295 -86.15332 45.173615 -86.16199 44.696808C -86.28302 37.028595 -87.471436 29.286896 -87.422485 20.546875" stroke="none"  fill="#CC2523" fill-rule="evenodd" />
					</g>
				</g>
				<g>
					<g>
						<path  d="M49.74408 22.304352L91.26456 22.304352C 91.293365 22.20929 91.32361 22.115662 91.355316 22.020569C 91.6319 21.177856 91.80911 21.062592 92.68353 20.650574C 93.45279 20.289001 95.38318 19.564392 96.21152 19.560059C 97.182465 19.549988 99.45712 19.73294 100.96399 20.150696C 101.674194 20.34375 102.00409 21.767029 102.46796 22.304352L102.46796 22.304352L110.63464 22.304352L110.63464 22.304352L110.63464 22.33319C 109.94458 24.308228 109.832214 24.498383 107.56906 26.4086C 106.962585 26.924316 105.795715 27.490479 104.76279 27.951447C 104.261475 28.180511 104.0238 28.071014 103.44754 28.521942C 103.41586 28.542084 103.40289 28.730804 103.39859 28.959839C 103.45334 30.275116 103.286224 31.539948 103.384186 32.721222C 103.64203 35.85736 101.7059 38.581543 98.86218 39.14334C 98.86218 41.35608 98.86218 45.232697 98.86218 48.394745C 99.500336 48.42932 100.150085 48.4841 100.806946 48.567627C 102.91165 49.71866 103.37839 50.865387 103.64636 52.547974C 104.19522 56.05725 103.8927 60.563385 104.144806 64.03232C 104.07565 67.11371 102.32678 68.99509 100.46698 69.92862C 100.30133 70.01218 99.69342 70.066925 98.91693 70.10147C 98.91693 73.15408 98.91693 76.206635 98.91693 79.25351C 100.757996 79.35864 102.06027 79.73465 102.95633 81.62613C 104.297485 84.47418 104.08142 93.526794 103.42883 96.98132C 103.055725 98.91748 101.596405 100.09302 100.03912 100.67352C 99.500336 100.94147 95.314026 101.04663 94.58942 100.8421C 93.09265 100.42572 92.14331 99.86389 91.50943 99.01111C 89.03308 95.656006 89.3212 83.74957 91.4158 80.925995C 92.03381 80.09192 92.84198 79.55606 93.92386 79.42206C 94.41077 79.362976 94.90631 79.31836 95.40765 79.27945C 95.40765 76.22107 95.40765 73.15839 95.40765 70.10147C 94.796875 70.076965 94.32434 70.038055 94.137085 69.98764C 92.64606 69.56558 91.69528 69.00519 91.05997 68.15094C 90.42758 67.29379 89.86719 66.1514 89.89743 64.53937C 89.93921 61.38739 90.11063 57.17801 89.89743 53.838715C 90.454926 50.910034 90.750244 49.7489 93.43262 48.616608C 93.909454 48.563324 94.87607 48.463898 95.355804 48.42932L95.355804 48.42932L95.355804 38.50229C 95.29385 38.467712 95.229034 38.433136 95.16995 38.394257C 94.97116 38.27469 95.23477 37.584656 95.04608 37.44635C 94.93225 37.367096 94.72772 37.331085 94.504425 37.310913L94.504425 37.310913L94.50009 37.310913C 94.49002 37.310913 94.47418 37.310913 94.465546 37.310913C 94.41077 37.30661 93.57669 37.18271 93.57669 37.18271C 93.552185 37.57022 93.74234 37.97647 93.43262 38.250183C 93.38077 38.28476 93.31882 38.329407 93.2511 38.378418C 92.65903 38.631927 91.179535 39.43579 89.38602 41.639893C 89.2074 41.757996 89.02298 41.887665 88.83426 42.017303C 83.417694 45.569763 77.616455 48.394745 72.35257 50.364044C 71.11508 50.83081 69.84885 51.14917 68.622894 51.45169C 62.324677 53.029114 56.974365 54.086517 53.68405 54.86154C 51.660034 55.336945 50.218018 55.292267 49.74408 55.326843L49.74408 55.326843L49.74408 22.304352M98.91693 82.186554L98.91693 82.186554C 98.91693 82.51929 98.91693 82.856384 98.91693 83.18915C 98.91693 84.95535 95.40765 84.881836 95.40765 83.28281C 95.40765 82.95581 95.40765 82.618744 95.40765 82.28595C 94.95676 82.31619 94.55771 82.2168 94.25949 82.25134C 92.29602 82.40982 91.927216 95.00049 93.55649 97.39337C 94.59375 98.54431 100.18173 98.9765 100.832886 96.78247C 101.69147 93.86963 102.00842 83.58679 100.16736 82.261444C 99.83026 82.2168 99.39807 82.196625 98.91693 82.186554M98.86218 51.32779L98.86218 51.32779C 98.86218 51.445923 98.86218 51.56549 98.86218 51.674988C 98.65329 53.24234 95.19446 53.178955 95.355804 51.764282L95.355804 51.764282L95.355804 51.43152C 94.77814 51.307617 93.78702 51.342194 93.64151 51.520844C 92.04535 52.617096 92.625885 60.638306 92.59851 62.400116C 92.58124 63.36676 92.68353 66.06207 93.109924 66.53314C 93.44272 66.90051 94.33154 67.1987 95.40765 67.352844C 95.40765 67.3226 95.40765 67.288025 95.40765 67.25775C 95.40765 65.02487 98.91693 64.6575 98.91693 67.25345C 98.91693 67.27792 98.91693 67.30817 98.91693 67.337006C 100.06506 67.12378 100.84012 66.68295 101.06625 65.92377C 101.368805 64.89664 101.69437 63.54538 101.606476 62.16098C 101.49701 60.368896 101.41632 58.017853 101.4682 56.379913C 101.33853 54.63681 101.6785 52.48889 100.16736 51.407043C 99.82016 51.362366 99.36783 51.336426 98.86218 51.32779" stroke="none"  fill="#CC2523" fill-rule="evenodd" />
					</g>
				</g>
				<g>
					<g>
						<path  d="M-52.661255 111.76172C -18.114563 111.76172 16.427673 111.76172 51.000244 111.76172C 53.354156 112.05847 53.66678 113.13025 54.39859 114.04938C 54.39859 116.93201 54.39859 119.82031 54.39859 122.72888C 53.838165 122.733154 53.2807 122.733154 52.726044 122.733154C 51.914978 122.73889 50.81299 121.88037 50.006287 121.88464C 16.256226 122.01868 -15.746277 121.93512 -49.470398 122.08923C -50.02063 122.08923 -52.021606 123.165344 -52.5719 123.17108C -53.42621 123.175476 -54.27899 123.18121 -55.134705 123.18555C -55.18805 121.46838 -56.207947 111.76172 -52.661255 111.76172" stroke="none"  fill="#CC2523" fill-rule="evenodd" />
					</g>
				</g>
				<g>
					<g>
						<path  d="M-56.8692 5.0577087L-5.757263 5.0577087L-5.757263 5.0577087L-5.757263 17.812653L-5.757263 17.812653L-56.8692 17.812653L-56.8692 17.812653L-56.8692 5.0577087M-11.8567505 6.486786L-11.8567505 6.486786L-11.8567505 6.486786L-10.551514 6.486786L-10.551514 6.486786L-10.551514 16.383575L-10.551514 16.383575L-11.8567505 16.383575L-11.8567505 16.383575L-11.8567505 6.486786" stroke="none"  fill="#CC2523" fill-rule="evenodd" />
					</g>
				</g>
				<g>
					<g>
						<path  d="M-56.8692 -9.885437L-5.757263 -9.885437L-5.757263 -9.885437L-5.757263 2.8694458L-5.757263 2.8694458L-56.8692 2.8694458L-56.8692 2.8694458L-56.8692 -9.885437M-11.8567505 -8.456421L-11.8567505 -8.456421L-11.8567505 -8.456421L-10.551514 -8.456421L-10.551514 -8.456421L-10.551514 1.4389648L-10.551514 1.4389648L-11.8567505 1.4389648L-11.8567505 1.4389648L-11.8567505 -8.456421" stroke="none"  fill="#CC2523" fill-rule="evenodd" />
					</g>
				</g>
				<g>
					<g>
						<path  d="M-56.8692 -24.82431L-5.757263 -24.82431L-5.757263 -24.82431L-5.757263 -12.0737L-5.757263 -12.0737L-56.8692 -12.0737L-56.8692 -12.0737L-56.8692 -24.82431M-11.8567505 -23.399567L-11.8567505 -23.399567L-11.8567505 -23.399567L-10.551514 -23.399567L-10.551514 -23.399567L-10.551514 -13.498444L-10.551514 -13.498444L-11.8567505 -13.498444L-11.8567505 -13.498444L-11.8567505 -23.399567" stroke="none"  fill="#CC2523" fill-rule="evenodd" />
					</g>
				</g>
				<g>
					<g>
						<path  d="M12.824768 -52.715424L12.824768 17.599426L12.824768 17.599426L-2.3920898 17.599426C -2.3920898 -5.740906 -2.3920898 -29.082672 -2.3920898 -52.41867C -2.3920898 -55.708954 11.417358 -56.368744 12.824768 -52.715424" stroke="none"  fill="#CC2523" fill-rule="evenodd" />
					</g>
				</g>
				<g>
					<g>
						<path  d="M27.693054 -48.050842L27.693054 17.599426L27.693054 17.599426L15.033203 17.599426C 15.033203 -4.1937256 15.033203 -25.985413 15.033203 -47.772797C 15.033203 -50.844116 26.52478 -51.460693 27.693054 -48.050842" stroke="none"  fill="#CC2523" fill-rule="evenodd" />
					</g>
				</g>
				<g>
					<g>
						<path  d="M38.130066 -38.259186L72.74008 15.435669L72.74008 15.435669L61.118927 22.919495C 49.634583 5.1066895 38.145935 -12.719086 26.654419 -30.541962C 25.036621 -33.052917 35.257507 -40.35379 38.130066 -38.259186" stroke="none"  fill="#CC2523" fill-rule="evenodd" />
					</g>
				</g>
				<g>
					<g>
						<path  d="M-112.445435 160.99792L106.71912 160.99792C 105.785614 162.35352 104.84204 163.6933 103.8826 165.00848C 103.319336 165.7879 102.746 166.55719 102.17264 167.32068C 102.02426 167.51514 101.88022 167.70819 101.73038 167.90125C 101.37167 168.38379 101.011536 168.85059 100.6485 169.31586L100.6485 169.31586L-106.37048 169.31586C -106.6485 168.96869 -106.923645 168.60712 -107.19879 168.24408C -107.521545 167.81189 -107.849976 167.38116 -108.17267 166.95331C -108.6178 166.35834 -109.06006 165.76196 -109.49945 165.15692C -110.49487 163.79266 -111.477356 162.40247 -112.445435 160.99792" stroke="none"  fill="#CC2523" fill-rule="evenodd" />
					</g>
				</g>
				<g>
					<g>
						<path  d="M-13.173401 -26.074738C -18.193848 -26.074738 -23.234436 -26.259125 -28.253418 -26.338348C -33.013123 -26.338348 -37.745422 -26.338348 -42.48065 -26.338348C -43.700806 -27.256012 -44.393738 -27.702606 -44.775513 -28.700897C -44.86914 -28.938599 -44.939697 -28.898254 -44.68042 -28.918457C -25.164795 -30.601044 -23.672363 -30.680267 -23.750183 -31.07788C -37.11737 -31.504272 -49.12744 -30.184723 -61.61444 -26.03006C -64.27234 -25.404846 -67.049805 -24.611084 -69.82141 -24.665863C -68.58685 -28.323486 -66.8006 -28.93283 -66.46777 -33.420258C -51.341675 -36.580902 -36.88971 -39.08319 -21.030334 -38.070465C -15.439453 -46.94876 -0.18365479 -41.14322 -6.7786865 -29.474518C -8.8689575 -27.022644 -10.089111 -26.903076 -13.173401 -26.074738M-16.541504 -29.598389L-16.541504 -29.598389C -15.985413 -30.641388 -14.605347 -31.291107 -13.959961 -32.383026C -13.595459 -32.44211 -13.225281 -32.502625 -12.859375 -32.5372C -13.225281 -35.667572 -13.379395 -35.306 -14.487244 -37.757843C -8.320068 -36.61548 -9.374634 -32.9924 -12.839172 -30.745087C -14.429626 -29.717957 -15.05188 -29.931183 -16.541504 -29.598389" stroke="none"  fill="#CC2523" fill-rule="evenodd" />
					</g>
				</g>
				<g>
					<g>
						<path  d="M-93.82446 137.5741C -91.35242 130.86383 -53.162537 27.113037 -53.35559 27.20813L-53.35559 27.20813L-48.75293 29.291199C -48.75293 29.291199 -48.371155 29.063568 -49.54669 32.855194C -50.720764 36.642487 -63.341736 71.77402 -63.341736 71.77402L-63.341736 71.77402L-87.67462 139.90637L-87.67462 139.90637L-93.82446 137.5741" stroke="none"  fill="#CC2523" fill-rule="evenodd" />
					</g>
				</g>
				<g>
					<g>
						<path  d="M-86.82611 138.1388C -83.25488 139.5534 -79.86377 140.89893 -77.223145 141.96497C -77.18286 142.33234 -77.14679 142.69965 -77.10651 143.06268C -76.73193 143.698 -76.66998 144.41681 -76.10956 144.80865C -75.178955 145.47424 -73.79315 145.6773 -74.09424 146.42212C -75.92804 150.9585 -77.766235 155.4892 -79.59723 160.02557C -79.8407 160.62054 -81.15454 159.91174 -82.35742 159.7533C -82.90051 159.67834 -83.3255 159.96075 -83.7807 160.11053C -84.126465 160.318 -84.4693 160.52686 -84.8136 160.74005C -91.82922 157.9021 -104.121704 153.10211 -111.13446 150.26276C -111.18207 149.94 -111.21948 149.61877 -111.26123 149.29608C -111.418274 148.92871 -111.43994 148.30353 -111.70068 148.05579C -112.82721 146.99261 -114.81232 147.16113 -114.334045 145.98132C -112.51459 141.48956 -110.703735 136.9978 -108.88141 132.51184C -108.62793 131.8852 -107.3703 132.44128 -106.15729 132.62567C -105.606995 132.69916 -105.048035 132.47589 -104.62305 132.42682C -104.300354 132.18341 -103.86676 131.74115 -103.5484 131.49768C -100.6557 132.66455 -96.87848 134.16418 -92.941345 135.72144L-92.941345 135.72144L-86.82611 138.1388" stroke="none"  fill="#CC2523" fill-rule="evenodd" />
					</g>
				</g>
				<g>
					<g>
						<path  d="M-70.51874 124.4115L69.60248 124.4115L69.60248 124.4115L69.60248 157.3504L69.60248 157.3504L-70.51874 157.3504L-70.51874 157.3504L-70.51874 124.4115M-30.541077 129.40881L-30.541077 129.40881L-30.541077 129.40881L-35.503906 129.40881C -36.1651 132.79852 -38.442688 134.49695 -42.32794 134.49695L-42.32794 134.49695L-42.32794 139.08667L-42.32794 139.08667L-37.12018 139.08667L-37.12018 139.08667L-37.12018 152.10956L-37.12018 152.10956L-30.541077 152.10956L-30.541077 152.10956L-30.541077 129.40881M-10.820923 147.76764L-10.820923 147.76764C -13.213745 148.09467 -14.498779 147.22601 -14.660095 145.15588C -14.660095 143.26147 -13.627197 142.3078 -11.561401 142.3078C -9.659851 142.39282 -8.664368 143.3451 -8.585144 145.15588C -8.585144 146.73474 -9.327026 147.6034 -10.820923 147.76764M-11.686768 138.71497L-11.686768 138.71497C -13.509033 138.63 -14.45697 137.84631 -14.540527 136.35242C -14.45697 134.78937 -13.467285 133.95532 -11.561401 133.8761C -9.821167 133.95532 -8.913574 134.78937 -8.831543 136.35242C -8.913574 137.84631 -9.868713 138.63 -11.686768 138.71497M-17.643555 140.45233L-17.643555 140.45233C -20.20636 141.43915 -21.449585 143.09723 -21.36316 145.40936C -21.201782 149.87665 -17.928772 152.19458 -11.561401 152.35736C -5.438904 152.19458 -2.2595215 149.87665 -2.00885 145.40936C -2.00885 143.01227 -3.2478027 141.27637 -5.7313843 140.19879C -3.7462158 139.45404 -2.7521973 137.9212 -2.7521973 135.60767C -3.0864868 131.72241 -5.9819946 129.65662 -11.434631 129.40881C -17.304993 129.65662 -20.367676 131.76709 -20.618347 135.73737C -20.701904 137.88092 -19.707886 139.45404 -17.643555 140.45233M11.142212 140.19879L11.142212 140.19879C 9.404846 140.11383 8.494385 139.12122 8.410889 137.21533C 8.494385 135.23602 9.44519 134.20306 11.263184 134.1239C 13.082642 134.28815 14.079529 135.23602 14.243713 136.97766C 14.243713 138.96283 13.21228 140.03455 11.142212 140.19879M2.3330078 146.65118L2.3330078 146.65118C 3.0748901 150.45148 6.0943604 152.35736 11.389954 152.35736C 17.670898 152.19458 20.939575 148.43176 21.187439 141.0675C 21.187439 133.28973 17.712646 129.40881 10.767639 129.40881C 4.895813 129.57306 1.8763428 132.21802 1.7150269 137.34503C 2.1270142 141.89581 4.6436768 144.29297 9.276611 144.54071C 11.263184 144.62573 13.042358 144.08405 14.616882 142.93298C 14.616882 146.3227 13.455811 148.01978 11.142212 148.01978C 9.730469 148.01978 8.821411 147.43915 8.410889 146.27808L8.410889 146.27808L2.3330078 146.65118M35.083252 141.81659L35.083252 141.81659C 36.89984 141.89581 37.85492 142.88843 37.937073 144.78992C 37.85492 146.77509 36.859497 147.80652 34.95935 147.89581C 33.138428 147.73303 32.150208 146.73474 31.986023 144.91815C 32.060913 142.84802 33.100952 141.81659 35.083252 141.81659M43.895264 135.35986L43.895264 135.35986C 43.147644 131.38965 40.128174 129.40881 34.839783 129.40881C 28.547302 129.65662 25.284424 133.49866 25.033752 140.94794C 25.033752 148.55133 28.547302 152.35736 35.57733 152.35736C 41.3656 152.19458 44.34619 149.62738 44.510437 144.67035C 44.101257 140.11383 41.577393 137.71667 36.944458 137.46893C 34.95935 137.38965 33.221985 137.9212 31.733887 139.08667C 31.648926 135.69269 32.76532 133.95532 35.083252 133.8761C 36.487793 133.8761 37.398254 134.49695 37.808838 135.73737L37.808838 135.73737L43.895264 135.35986" stroke="none"  fill="#CC2523" fill-rule="evenodd" />
					</g>
				</g>
				<g>
					<g>
						<path  d="M94.10251 -173.50978C 90.4823 -174.99358 86.196594 -176.06537 83.70291 -172.77937C 81.15021 -168.70975 79.93292 -164.95847 81.37204 -163.7066C 82.22922 -162.75436 86.372314 -160.55173 91.410034 -158.14307L91.410034 -158.14307L90.470795 -156.08878L90.470795 -156.08878L87.91086 -157.31473C 81.308685 -159.36469 75.62268 -155.63211 68.951324 -148.32693C 64.66275 -146.3375 58.33716 -149.58746 61.26007 -153.26526C 64.8212 -154.05902 66.72421 -155.42899 67.75998 -158.15457C 68.71799 -162.99207 69.11127 -167.79642 71.831085 -169.39978C 81.5939 -172.76932 79.94302 -178.87881 75.373474 -182.9888C 71.44934 -185.89157 67.57846 -186.318 68.22388 -182.58112C 69.43683 -178.93788 71.60062 -174.59163 65.87857 -175.22118L65.87857 -175.22118L49.8089 -180.01112C 45.26245 -181.59431 42.37982 -175.33066 48.309204 -172.64542C 51.536133 -171.38492 55.160645 -171.1962 58.03177 -170.7597C 62.053833 -170.41252 61.76425 -166.53589 56.95703 -167.31093L56.95703 -167.31093L45.338745 -168.31357C 41.32965 -168.53542 39.121216 -162.57141 47.30664 -161.89145C 50.883545 -161.60336 54.751495 -162.47632 58.404846 -163.38966C 61.585663 -163.4199 61.977478 -160.92337 59.789215 -159.32434C 57.44684 -158.035 54.290527 -157.81174 50.63434 -157.7858C 46.1167 -158.02493 42.500793 -156.86816 42.924377 -152.21796L42.924377 -152.21796L39.276794 -142.53003C 37.053955 -136.65387 39.113953 -133.70215 42.872498 -134.35184L42.872498 -134.35184L53.515503 -131.86972C 75.44263 -127.94412 88.04483 -121.522 96.292175 -107.120514C 98.833374 -103.1488 104.91263 -102.385284 104.61444 -107.93298C 103.90997 -110.50009 102.48956 -112.8569 100.4252 -115.28427C 104.51935 -121.32321 107.96091 -127.8793 109.94745 -134.35617C 112.83295 -143.5831 106.44827 -147.38336 103.09747 -150.05994L103.09747 -150.05994L99.7251 -151.67197L99.7251 -151.67197L100.74359 -153.88614C 106.403625 -151.40402 111.46295 -149.3699 112.929474 -149.07602C 115.95468 -148.40619 117.08124 -151.6518 118.877655 -156.84366C 120.3067 -160.98819 116.23273 -163.09146 109.74579 -166.49126L109.74579 -166.49126L94.10251 -173.50978M97.27466 -147.86597L97.27466 -147.86597C 96.05307 -148.71878 95.50275 -147.76224 95.14981 -146.2424C 94.96396 -144.8782 97.83502 -143.27048 99.24393 -142.8628C 101.040344 -144.5209 98.67346 -146.60974 97.27466 -147.86597M85.316376 -152.44702L85.316376 -152.44702C 84.45059 -152.362 83.39032 -152.3721 83.73605 -150.4273C 84.1423 -149.29935 87.143036 -148.37592 87.69046 -149.63208C 88.35312 -151.30463 87.09982 -152.12863 85.316376 -152.44702M93.17044 -138.54538L93.17044 -138.54538C 92.993256 -140.83734 96.747406 -139.44287 98.44586 -137.93024C 99.38367 -136.98666 101.28381 -135.37897 100.89197 -134.14728C 99.32315 -131.00104 93.80716 -134.62988 93.17044 -138.54538M79.784515 -146.37637L79.784515 -146.37637C 78.77759 -146.50604 77.88873 -145.88513 77.72452 -143.88995C 77.86426 -142.48105 82.41794 -140.5694 84.152405 -141.55762C 87.47293 -143.95477 81.42822 -146.0249 79.784515 -146.37637M89.29382 -131.96478L89.29382 -131.96478C 86.7973 -132.89685 83.92908 -130.28653 84.61624 -126.36093C 85.443146 -124.0488 90.2446 -122.77817 92.69504 -121.477356C 94.92218 -121.164734 96.951965 -124.44061 96.57742 -126.67352C 95.47247 -128.25671 91.89407 -130.10355 89.29382 -131.96478M70.992676 -137.65222L70.992676 -137.65222C 68.811615 -135.61237 69.62265 -133.74536 71.730255 -131.81064C 73.352325 -130.52997 75.83737 -129.88458 77.960754 -130.44064C 79.65488 -131.40298 80.58838 -134.45123 79.852264 -135.9696C 78.8251 -138.01956 73.74994 -140.14874 70.992676 -137.65222M60.87256 -142.337L60.87256 -142.337C 58.77365 -142.64386 57.4411 -141.35883 57.331635 -139.28006C 57.3172 -137.18546 59.639404 -135.80106 61.794556 -136.89734C 63.82141 -138.50504 64.29538 -141.21478 60.87256 -142.337M48.871033 -148.30676L48.871033 -148.30676L48.871033 -148.30676L46.03888 -140.87769C 46.48114 -138.58429 49.664795 -138.7096 50.24829 -140.2222L50.24829 -140.2222L53.103485 -147.59799C 53.006958 -150.31207 50.13159 -150.56992 48.871033 -148.30676M91.953125 -168.22281L91.953125 -168.22281C 89.75049 -168.81924 88.755066 -166.66986 89.4523 -164.7006C 90.31375 -163.394 102.18704 -158.77838 108.38876 -156.12912C 112.06943 -156.6247 110.517944 -159.83145 107.18298 -161.34982L107.18298 -161.34982L91.953125 -168.22281" stroke="none"  fill="#CC2523" fill-rule="evenodd" />
					</g>
				</g>
				<g>
					<g>
						<path  d="M-128.0138 -147.27963C -138.24768 -143.79056 -137.4986 -133.7612 -125.49567 -141.08658C -118.825806 -145.24551 -112.00751 -149.18121 -105.19928 -152.5997L-105.19928 -152.5997L-105.20935 -152.5853C -103.57721 -151.87509 -102.80652 -150.4273 -102.63794 -148.8974C -112.256714 -140.89209 -123.408264 -129.14557 -126.53436 -109.00046C -127.364136 -103.17905 -119.20032 -98.072174 -117.39386 -107.46768C -116.52515 -123.73044 -108.23749 -135.16574 -101.898926 -141.56195C -97.01965 -145.27435 -90.243164 -149.54279 -80.40253 -148.2131C -68.87207 -147.8501 -62.795715 -141.30984 -54.04419 -135.0073C -49.440063 -133.2109 -44.812927 -138.16794 -51.520325 -144.81335C -60.594543 -153.12695 -78.20276 -157.79156 -94.325806 -153.866C -94.325806 -153.866 -95.85138 -155.87128 -94.8761 -157.38388L-94.8761 -157.38388L-94.8833 -157.38388C -87.67029 -160.42639 -80.56531 -162.73996 -73.79169 -164.01488C -64.98395 -164.6401 -63.471313 -172.8831 -73.699524 -172.54602C -81.00763 -172.53162 -98.983215 -157.126 -102.509705 -166.92775C -105.44702 -175.0728 -115.63922 -173.0632 -108.90161 -163.09146C -103.93158 -155.97931 -119.31561 -152.41245 -128.0138 -147.27963" stroke="none"  fill="#CC2523" fill-rule="evenodd" />
					</g>
				</g>
				<g>
					<g>
						<path  d="M-234.3404 -50.70581C -233.85345 -52.120453 -231.75452 -56.313995 -230.47961 -56.829712C -228.59247 -57.465027 -226.3869 -56.502716 -228.9079 -52.72119C -233.15332 -46.070007 -229.25366 -40.323517 -227.31464 -46.274597C -225.95477 -53.63452 -220.8435 -56.180023 -221.83899 -49.06357C -222.75952 -44.978058 -221.50763 -42.76532 -219.87543 -44.859955C -218.9693 -45.549988 -218.31677 -49.37039 -216.84735 -50.41339C -212.6178 -52.45758 -212.6524 -45.90146 -215.89807 -40.621735C -218.28937 -35.43564 -223.86877 -35.048126 -230.60059 -38.253418C -236.52429 -41.415497 -235.8717 -45.53412 -234.3404 -50.70581M-178.40973 -62.73181L-178.40973 -62.73181C -178.73535 -72.53787 -169.6524 -64.99927 -170.68097 -60.82016C -172.06543 -54.77115 -174.58643 -49.27246 -177.42725 -45.20279C -174.69019 -41.633026 -173.41522 -37.430847 -174.95087 -33.048584C -177.3653 -27.718445 -182.43329 -26.864166 -181.86426 -30.77536C -179.51898 -36.53192 -182.81934 -38.184265 -185.86182 -35.450043C -187.99683 -33.296387 -190.19946 -27.568634 -195.22278 -27.7919C -201.48065 -28.625977 -195.90997 -34.59146 -194.05591 -37.062073L-194.05591 -37.062073L-193.09357 -37.8472C -194.19275 -37.260834 -195.7486 -37.12259 -198.13568 -38.03589C -202.42859 -40.22989 -200.08905 -46.76584 -197.35052 -52.323578C -194.36273 -58.378357 -192.01312 -62.94934 -188.9289 -63.633606C -182.07318 -63.708527 -181.62946 -58.175232 -183.63904 -53.366577C -181.71295 -45.4693 -177.54822 -56.880157 -178.40973 -62.73181M-191.86188 -38.844055L-191.86188 -38.844055L-191.86188 -38.844055L-191.84174 -38.864227C -188.34833 -38.73459 -185.0033 -44.080566 -188.31372 -44.532898L-188.31372 -44.532898L-190.57117 -40.725464C -190.9284 -40.15497 -191.32172 -39.454865 -191.86188 -38.844055M-193.97668 -50.908936L-193.97668 -50.908936C -194.77045 -48.710632 -195.73853 -46.433044 -194.79346 -45.529785C -192.6413 -43.837128 -190.05975 -48.27411 -188.31372 -52.999237C -187.16992 -60.115723 -191.36633 -56.766357 -193.97668 -50.908936M-205.42639 -14.720062L-205.42639 -14.720062C -199.44226 -9.146454 -196.77142 -15.871094 -202.10303 -21.146515C -211.3487 -34.21402 -204.80548 -45.84674 -199.54022 -56.070526C -193.50995 -66.14023 -184.53363 -76.325134 -172.73529 -73.69464C -162.7146 -71.411316 -162.40918 -81.8887 -170.92883 -82.00247C -183.76581 -83.73981 -190.81458 -75.882904 -199.2002 -63.80362L-199.2002 -63.80362L-201.02112 -64.99353L-201.02112 -64.99353L-196.42279 -72.58252C -195.05133 -76.34964 -194.0141 -81.20871 -200.08331 -87.06903C -203.83746 -90.36505 -208.01373 -92.69739 -211.64398 -89.859436C -214.75562 -86.40491 -216.73212 -82.081726 -218.34412 -77.82913C -218.34412 -77.342224 -218.2807 -76.995026 -218.1554 -76.76163L-218.1554 -76.76163L-219.42456 -76.03702C -220.41852 -75.223114 -222.28265 -74.244965 -222.47864 -71.99765C -222.12567 -70.20987 -221.31464 -69.36716 -221.7785 -67.03482L-221.7785 -67.03482L-224.69281 -63.07901C -226.55255 -60.726532 -225.99939 -58.006714 -223.32281 -58.66217C -221.09418 -59.664795 -219.86823 -59.316193 -218.97223 -58.562775L-218.97223 -58.562775L-218.22021 -55.644135C -217.88031 -53.49048 -217.05481 -52.536804 -213.98492 -54.617004C -212.23029 -55.118317 -209.17773 -53.768494 -207.36829 -51.222992C -214.40417 -38.457977 -216.28986 -25.43512 -205.42639 -14.720062M-201.90997 -59.85208L-201.90997 -59.85208L-201.90997 -59.85208L-204.02332 -56.726013C -204.57794 -55.891937 -205.12103 -55.049164 -205.63245 -54.204987C -210.1112 -58.63623 -204.66864 -61.713318 -201.90997 -59.85208M-204.02618 -66.95993L-204.02618 -66.95993C -205.47394 -65.31766 -209.08551 -64.27466 -209.9945 -67.51599C -209.65454 -72.03653 -212.29944 -73.078064 -214.1131 -69.52991C -215.21521 -68.1311 -217.80396 -69.0387 -217.23492 -72.09128L-217.23492 -72.09128L-215.30737 -77.362366C -214.39697 -77.95734 -213.37122 -78.69205 -212.4032 -79.23367C -209.89801 -84.509094 -205.23193 -85.57083 -207.02838 -79.66443C -208.40845 -76.28049 -206.88574 -72.061035 -204.36902 -75.10928C -201.92151 -78.24545 -199.47107 -77.466095 -200.43335 -74.244965C -202.30469 -71.14337 -203.0581 -69.16257 -204.02618 -66.95993" stroke="none"  fill="#CC2523" fill-rule="evenodd" />
					</g>
				</g>
				<g>
					<g>
						<path  d="M218.14102 -58.52243C 227.02509 -62.677063 222.92517 -71.1189 213.13644 -67.212006C 208.09726 -66.99451 193.65253 -79.178955 187.89743 -84.46875C 183.7586 -89.48633 177.55978 -86.21619 182.42609 -80.64258C 189.09598 -73.62982 198.41943 -66.606995 207.54553 -62.78653C 210.48578 -61.500122 212.40463 -57.351257 211.6051 -54.071014C 210.13858 -44.725983 212.28503 -27.266113 213.86826 -21.846619C 215.01062 -17.65741 222.61258 -16.654755 220.88678 -22.23413C 217.56622 -34.05124 217.65555 -55.644135 218.14102 -58.52243" stroke="none"  fill="#CC2523" fill-rule="evenodd" />
					</g>
				</g>
				<g>
					<g>
						<path  d="M196.78436 -67.3071C 190.84775 -68.98538 186.59225 -71.033875 181.26495 -76.01254C 176.94467 -79.63562 172.16913 -77.01517 177.25153 -70.64206C 183.19968 -64.4389 191.86768 -61.524597 198.08234 -60.383636C 202.47324 -60.532043 202.33926 -65.719574 196.78436 -67.3071" stroke="none"  fill="#CC2523" fill-rule="evenodd" />
					</g>
				</g>
				<g>
					<g>
						<path  d="M209.90375 -43.822723C 207.99213 -37.956665 207.33234 -33.276184 208.50351 -26.080505C 209.11862 -20.480957 204.27539 -17.970001 201.80624 -25.73764C 199.96805 -34.130463 202.36377 -42.95404 204.87326 -48.750946C 207.4418 -52.323578 211.67569 -49.32141 209.90375 -43.822723" stroke="none"  fill="#CC2523" fill-rule="evenodd" />
					</g>
				</g>
				<g>
					<g>
						<path  d="M195.70395 -60.88498C 190.3392 -51.331024 197.45425 -44.626556 203.68188 -45.72287L203.68188 -45.72287L201.58728 -37.459656C 199.59497 -40.01526 195.60455 -44.854187 194.27057 -37.14273C 193.8038 -27.876892 192.97693 -15.205536 189.53537 -9.528198C 185.64148 -4.476074 179.89642 -7.0474854 181.85706 -12.809845C 184.59705 -21.875458 187.48254 -30.467072 187.35144 -41.236877C 187.02441 -44.69571 186.48566 -48.83017 180.36893 -51.982178C 173.2294 -55.276794 166.02505 -58.309204 158.47928 -61.31137C 151.24179 -64.761566 155.46411 -70.86102 159.93137 -69.32678C 167.42242 -66.77554 174.68585 -62.870117 180.55045 -58.339447C 186.86453 -53.6734 187.0662 -59.620148 187.68854 -63.56015L187.68854 -63.56015L195.70395 -60.88498" stroke="none"  fill="#CC2523" fill-rule="evenodd" />
					</g>
				</g>
				<g>
					<g>
						<path  d="M199.29532 -67.57938C 198.59085 -66.82019 197.47586 -67.0694 196.00934 -67.530396L196.00934 -67.530396L195.70395 -60.88498L195.70395 -60.88498L199.05905 -60.513306C 201.41583 -61.207672 203.03653 -62.736115 203.83893 -64.50229L203.83893 -64.50229L199.29532 -67.57938" stroke="none"  fill="#CC2523" fill-rule="evenodd" />
					</g>
				</g>
				<g>
					<g>
						<path  d="M211.44662 -51.444855C 209.95273 -50.681335 206.54865 -51.331024 204.87326 -48.750946L204.87326 -48.750946L209.57101 -42.785522C 210.49152 -44.174225 210.51312 -45.286346 211.55322 -45.87268L211.55322 -45.87268L211.44662 -51.444855" stroke="none"  fill="#CC2523" fill-rule="evenodd" />
					</g>
				</g>
				<g>
					<g>
						<g>
						</g>
					</g>
					<g>
						<g>
							<g>
							</g>
							<g>
								<g>
								</g>
							</g>
						</g>
					</g>
				</g>
			</g>
		</g>
	</g>
</g>
</svg>
